<?xml version="1.0" encoding="UTF-8" standalone="no"?>
<!DOCTYPE svg PUBLIC "-//W3C//DTD SVG 1.1//EN"
 "http://www.w3.org/Graphics/SVG/1.1/DTD/svg11.dtd">
<!-- Generated by graphviz version 2.40.1 (20161225.0304)
 -->
<!-- Title: UmlClassDiagram Pages: 1 -->
<svg width="649pt" height="888pt"
 viewBox="0.00 0.00 649.29 888.00" xmlns="http://www.w3.org/2000/svg" xmlns:xlink="http://www.w3.org/1999/xlink">
<g id="graph0" class="graph" transform="scale(1 1) rotate(0) translate(4 884)">
<title>UmlClassDiagram</title>
<polygon fill="#ffffff" stroke="transparent" points="-4,4 -4,-884 645.2928,-884 645.2928,4 -4,4"/>
<!-- 1 -->
<g id="node1" class="node">
<title>1</title>
<polygon fill="#f2f2f2" stroke="#000000" points="433.9345,-721.1 433.9345,-879.5 523.4919,-879.5 523.4919,-721.1 433.9345,-721.1"/>
<text text-anchor="middle" x="478.7132" y="-862.9" font-family="Times,serif" font-size="14.00" fill="#000000">&lt;&lt;Library&gt;&gt;</text>
<text text-anchor="middle" x="478.7132" y="-846.1" font-family="Times,serif" font-size="14.00" fill="#000000">SafeMath</text>
<polyline fill="none" stroke="#000000" points="433.9345,-837.9 523.4919,-837.9 "/>
<text text-anchor="middle" x="478.7132" y="-821.3" font-family="Times,serif" font-size="14.00" fill="#000000"> </text>
<polyline fill="none" stroke="#000000" points="433.9345,-813.1 523.4919,-813.1 "/>
<text text-anchor="start" x="441.9345" y="-796.5" font-family="Times,serif" font-size="14.00" fill="#000000">Internal:</text>
<text text-anchor="start" x="441.9345" y="-779.7" font-family="Times,serif" font-size="14.00" fill="#000000"> &#160;&#160;&#160;mul()</text>
<text text-anchor="start" x="441.9345" y="-762.9" font-family="Times,serif" font-size="14.00" fill="#000000"> &#160;&#160;&#160;div()</text>
<text text-anchor="start" x="441.9345" y="-746.1" font-family="Times,serif" font-size="14.00" fill="#000000"> &#160;&#160;&#160;sub()</text>
<text text-anchor="start" x="441.9345" y="-729.3" font-family="Times,serif" font-size="14.00" fill="#000000"> &#160;&#160;&#160;add()</text>
</g>
<!-- 2 -->
<g id="node2" class="node">
<title>2</title>
<polygon fill="#f2f2f2" stroke="#000000" points="0,-305.1 0,-463.5 231.4264,-463.5 231.4264,-305.1 0,-305.1"/>
<text text-anchor="middle" x="115.7132" y="-446.9" font-family="Times,serif" font-size="14.00" fill="#000000">Ownable</text>
<polyline fill="none" stroke="#000000" points="0,-438.7 231.4264,-438.7 "/>
<text text-anchor="start" x="8" y="-422.1" font-family="Times,serif" font-size="14.00" fill="#000000">Public:</text>
<text text-anchor="start" x="8" y="-405.3" font-family="Times,serif" font-size="14.00" fill="#000000"> &#160;&#160;owner: address</text>
<polyline fill="none" stroke="#000000" points="0,-397.1 231.4264,-397.1 "/>
<text text-anchor="start" x="8" y="-380.5" font-family="Times,serif" font-size="14.00" fill="#000000">Public:</text>
<text text-anchor="start" x="8" y="-363.7" font-family="Times,serif" font-size="14.00" fill="#000000"> &#160;&#160;&#160;&lt;&lt;event&gt;&gt; OwnershipTransferred()</text>
<text text-anchor="start" x="8" y="-346.9" font-family="Times,serif" font-size="14.00" fill="#000000"> &#160;&#160;&#160;&lt;&lt;modifier&gt;&gt; onlyOwner()</text>
<text text-anchor="start" x="8" y="-330.1" font-family="Times,serif" font-size="14.00" fill="#000000"> &#160;&#160;&#160;constructor()</text>
<text text-anchor="start" x="8" y="-313.3" font-family="Times,serif" font-size="14.00" fill="#000000"> &#160;&#160;&#160;transferOwnership()</text>
</g>
<!-- 3 -->
<g id="node3" class="node">
<title>3</title>
<polygon fill="#f2f2f2" stroke="#000000" points="198.9902,-721.1 198.9902,-879.5 374.4362,-879.5 374.4362,-721.1 198.9902,-721.1"/>
<text text-anchor="middle" x="286.7132" y="-862.9" font-family="Times,serif" font-size="14.00" fill="#000000">&lt;&lt;Abstract&gt;&gt;</text>
<text text-anchor="middle" x="286.7132" y="-846.1" font-family="Times,serif" font-size="14.00" fill="#000000">ERC20Basic</text>
<polyline fill="none" stroke="#000000" points="198.9902,-837.9 374.4362,-837.9 "/>
<text text-anchor="start" x="206.9902" y="-821.3" font-family="Times,serif" font-size="14.00" fill="#000000">Public:</text>
<text text-anchor="start" x="206.9902" y="-804.5" font-family="Times,serif" font-size="14.00" fill="#000000"> &#160;&#160;totalSupply: uint256</text>
<polyline fill="none" stroke="#000000" points="198.9902,-796.3 374.4362,-796.3 "/>
<text text-anchor="start" x="206.9902" y="-779.7" font-family="Times,serif" font-size="14.00" fill="#000000">Public:</text>
<text text-anchor="start" x="206.9902" y="-762.9" font-family="Times,serif" font-size="14.00" fill="#000000"> &#160;&#160;&#160;&lt;&lt;abstract&gt;&gt; balanceOf()</text>
<text text-anchor="start" x="206.9902" y="-746.1" font-family="Times,serif" font-size="14.00" fill="#000000"> &#160;&#160;&#160;&lt;&lt;abstract&gt;&gt; transfer()</text>
<text text-anchor="start" x="206.9902" y="-729.3" font-family="Times,serif" font-size="14.00" fill="#000000"> &#160;&#160;&#160;&lt;&lt;event&gt;&gt; Transfer()</text>
</g>
<!-- 4 -->
<g id="node4" class="node">
<title>4</title>
<polygon fill="#f2f2f2" stroke="#000000" points="358.2379,-542.5 358.2379,-667.3 599.1885,-667.3 599.1885,-542.5 358.2379,-542.5"/>
<text text-anchor="middle" x="478.7132" y="-650.7" font-family="Times,serif" font-size="14.00" fill="#000000">BasicToken</text>
<polyline fill="none" stroke="#000000" points="358.2379,-642.5 599.1885,-642.5 "/>
<text text-anchor="start" x="366.2379" y="-625.9" font-family="Times,serif" font-size="14.00" fill="#000000">Public:</text>
<text text-anchor="start" x="366.2379" y="-609.1" font-family="Times,serif" font-size="14.00" fill="#000000"> &#160;&#160;balances: mapping(address=&gt;uint256)</text>
<polyline fill="none" stroke="#000000" points="358.2379,-600.9 599.1885,-600.9 "/>
<text text-anchor="start" x="366.2379" y="-584.3" font-family="Times,serif" font-size="14.00" fill="#000000">Public:</text>
<text text-anchor="start" x="366.2379" y="-567.5" font-family="Times,serif" font-size="14.00" fill="#000000"> &#160;&#160;&#160;transfer()</text>
<text text-anchor="start" x="366.2379" y="-550.7" font-family="Times,serif" font-size="14.00" fill="#000000"> &#160;&#160;&#160;balanceOf()</text>
</g>
<!-- 4&#45;&gt;1 -->
<g id="edge2" class="edge">
<title>4&#45;&gt;1</title>
<path fill="none" stroke="#000000" stroke-dasharray="5,2" d="M478.7132,-667.5321C478.7132,-681.3182 478.7132,-696.1783 478.7132,-710.7923"/>
<polygon fill="#000000" stroke="#000000" points="475.2133,-710.8541 478.7132,-720.8542 482.2133,-710.8542 475.2133,-710.8541"/>
</g>
<!-- 4&#45;&gt;3 -->
<g id="edge1" class="edge">
<title>4&#45;&gt;3</title>
<path fill="none" stroke="#000000" d="M417.171,-667.5321C407.1415,-677.7391 396.5336,-688.5349 385.8736,-699.3836"/>
<polygon fill="none" stroke="#000000" points="378.3134,-692.0964 364.7767,-720.8542 393.2924,-706.8148 378.3134,-692.0964"/>
</g>
<!-- 5 -->
<g id="node5" class="node">
<title>5</title>
<polygon fill="#f2f2f2" stroke="#000000" points="149.2083,-525.7 149.2083,-684.1 340.2181,-684.1 340.2181,-525.7 149.2083,-525.7"/>
<text text-anchor="middle" x="244.7132" y="-667.5" font-family="Times,serif" font-size="14.00" fill="#000000">&lt;&lt;Abstract&gt;&gt;</text>
<text text-anchor="middle" x="244.7132" y="-650.7" font-family="Times,serif" font-size="14.00" fill="#000000">ERC20</text>
<polyline fill="none" stroke="#000000" points="149.2083,-642.5 340.2181,-642.5 "/>
<text text-anchor="middle" x="244.7132" y="-625.9" font-family="Times,serif" font-size="14.00" fill="#000000"> </text>
<polyline fill="none" stroke="#000000" points="149.2083,-617.7 340.2181,-617.7 "/>
<text text-anchor="start" x="157.2083" y="-601.1" font-family="Times,serif" font-size="14.00" fill="#000000">Public:</text>
<text text-anchor="start" x="157.2083" y="-584.3" font-family="Times,serif" font-size="14.00" fill="#000000"> &#160;&#160;&#160;&lt;&lt;abstract&gt;&gt; allowance()</text>
<text text-anchor="start" x="157.2083" y="-567.5" font-family="Times,serif" font-size="14.00" fill="#000000"> &#160;&#160;&#160;&lt;&lt;abstract&gt;&gt; transferFrom()</text>
<text text-anchor="start" x="157.2083" y="-550.7" font-family="Times,serif" font-size="14.00" fill="#000000"> &#160;&#160;&#160;&lt;&lt;abstract&gt;&gt; approve()</text>
<text text-anchor="start" x="157.2083" y="-533.9" font-family="Times,serif" font-size="14.00" fill="#000000"> &#160;&#160;&#160;&lt;&lt;event&gt;&gt; Approval()</text>
</g>
<!-- 5&#45;&gt;3 -->
<g id="edge3" class="edge">
<title>5&#45;&gt;3</title>
<path fill="none" stroke="#000000" d="M261.7962,-684.3767C262.3019,-686.7292 262.8107,-689.0964 263.3214,-691.4725"/>
<polygon fill="none" stroke="#000000" points="253.0754,-693.7702 269.6453,-720.8938 273.6065,-689.3571 253.0754,-693.7702"/>
</g>
<!-- 6 -->
<g id="node6" class="node">
<title>6</title>
<polygon fill="#f2f2f2" stroke="#000000" points="288.1336,-279.9 288.1336,-488.7 641.2928,-488.7 641.2928,-279.9 288.1336,-279.9"/>
<text text-anchor="middle" x="464.7132" y="-472.1" font-family="Times,serif" font-size="14.00" fill="#000000">StandardToken</text>
<polyline fill="none" stroke="#000000" points="288.1336,-463.9 641.2928,-463.9 "/>
<text text-anchor="start" x="296.1336" y="-447.3" font-family="Times,serif" font-size="14.00" fill="#000000">Internal:</text>
<text text-anchor="start" x="296.1336" y="-430.5" font-family="Times,serif" font-size="14.00" fill="#000000"> &#160;&#160;allowed: mapping(address=&gt;mapping(address=&gt;uint256))</text>
<polyline fill="none" stroke="#000000" points="288.1336,-422.3 641.2928,-422.3 "/>
<text text-anchor="start" x="296.1336" y="-405.7" font-family="Times,serif" font-size="14.00" fill="#000000">Public:</text>
<text text-anchor="start" x="296.1336" y="-388.9" font-family="Times,serif" font-size="14.00" fill="#000000"> &#160;&#160;&#160;&lt;&lt;event&gt;&gt; Burn()</text>
<text text-anchor="start" x="296.1336" y="-372.1" font-family="Times,serif" font-size="14.00" fill="#000000"> &#160;&#160;&#160;burn()</text>
<text text-anchor="start" x="296.1336" y="-355.3" font-family="Times,serif" font-size="14.00" fill="#000000"> &#160;&#160;&#160;transferFrom()</text>
<text text-anchor="start" x="296.1336" y="-338.5" font-family="Times,serif" font-size="14.00" fill="#000000"> &#160;&#160;&#160;approve()</text>
<text text-anchor="start" x="296.1336" y="-321.7" font-family="Times,serif" font-size="14.00" fill="#000000"> &#160;&#160;&#160;allowance()</text>
<text text-anchor="start" x="296.1336" y="-304.9" font-family="Times,serif" font-size="14.00" fill="#000000"> &#160;&#160;&#160;increaseApproval()</text>
<text text-anchor="start" x="296.1336" y="-288.1" font-family="Times,serif" font-size="14.00" fill="#000000"> &#160;&#160;&#160;decreaseApproval()</text>
</g>
<!-- 6&#45;&gt;4 -->
<g id="edge5" class="edge">
<title>6&#45;&gt;4</title>
<path fill="none" stroke="#000000" d="M471.3442,-488.7858C471.8332,-496.4908 472.3246,-504.2337 472.8088,-511.8636"/>
<polygon fill="none" stroke="#000000" points="462.3553,-512.9312 474.7344,-542.2059 483.3132,-511.6011 462.3553,-512.9312"/>
</g>
<!-- 6&#45;&gt;5 -->
<g id="edge4" class="edge">
<title>6&#45;&gt;5</title>
<path fill="none" stroke="#000000" d="M360.5116,-488.7858C355.4071,-493.9042 350.286,-499.0393 345.1922,-504.1469"/>
<polygon fill="none" stroke="#000000" points="337.6074,-496.883 323.8578,-525.5396 352.4768,-511.712 337.6074,-496.883"/>
</g>
<!-- 7 -->
<g id="node7" class="node">
<title>7</title>
<polygon fill="#f2f2f2" stroke="#000000" points="76.919,-.5 76.919,-242.9 442.5074,-242.9 442.5074,-.5 76.919,-.5"/>
<text text-anchor="middle" x="259.7132" y="-226.3" font-family="Times,serif" font-size="14.00" fill="#000000">SportGiftToken</text>
<polyline fill="none" stroke="#000000" points="76.919,-218.1 442.5074,-218.1 "/>
<text text-anchor="start" x="84.919" y="-201.5" font-family="Times,serif" font-size="14.00" fill="#000000">Public:</text>
<text text-anchor="start" x="84.919" y="-184.7" font-family="Times,serif" font-size="14.00" fill="#000000"> &#160;&#160;name: string</text>
<text text-anchor="start" x="84.919" y="-167.9" font-family="Times,serif" font-size="14.00" fill="#000000"> &#160;&#160;symbol: string</text>
<text text-anchor="start" x="84.919" y="-151.1" font-family="Times,serif" font-size="14.00" fill="#000000"> &#160;&#160;decimals: uint8</text>
<text text-anchor="start" x="84.919" y="-134.3" font-family="Times,serif" font-size="14.00" fill="#000000"> &#160;&#160;INITIAL_SUPPLY: uint256</text>
<text text-anchor="start" x="84.919" y="-117.5" font-family="Times,serif" font-size="14.00" fill="#000000"> &#160;&#160;frozenAccount: mapping(address=&gt;bool)</text>
<text text-anchor="start" x="84.919" y="-100.7" font-family="Times,serif" font-size="14.00" fill="#000000"> &#160;&#160;allowance: mapping(address=&gt;mapping(address=&gt;uint256))</text>
<polyline fill="none" stroke="#000000" points="76.919,-92.5 442.5074,-92.5 "/>
<text text-anchor="start" x="84.919" y="-75.9" font-family="Times,serif" font-size="14.00" fill="#000000">Public:</text>
<text text-anchor="start" x="84.919" y="-59.1" font-family="Times,serif" font-size="14.00" fill="#000000"> &#160;&#160;&#160;&lt;&lt;event&gt;&gt; FrozenFunds()</text>
<text text-anchor="start" x="84.919" y="-42.3" font-family="Times,serif" font-size="14.00" fill="#000000"> &#160;&#160;&#160;constructor()</text>
<text text-anchor="start" x="84.919" y="-25.5" font-family="Times,serif" font-size="14.00" fill="#000000"> &#160;&#160;&#160;airDrop()</text>
<text text-anchor="start" x="84.919" y="-8.7" font-family="Times,serif" font-size="14.00" fill="#000000"> &#160;&#160;&#160;freezeAccount()</text>
</g>
<!-- 7&#45;&gt;2 -->
<g id="edge7" class="edge">
<title>7&#45;&gt;2</title>
<path fill="none" stroke="#000000" d="M193.1929,-243.0072C186.7263,-254.7996 180.2005,-266.7002 173.8257,-278.3254"/>
<polygon fill="none" stroke="#000000" points="164.5419,-273.4176 159.324,-304.7708 182.9552,-283.5148 164.5419,-273.4176"/>
</g>
<!-- 7&#45;&gt;5 -->
<g id="edge8" class="edge">
<title>7&#45;&gt;5</title>
<path fill="none" stroke="#000000" stroke-dasharray="5,2" d="M255.9474,-243.0081C253.3188,-327.686 249.8684,-438.8324 247.4887,-515.4929"/>
<polygon fill="#000000" stroke="#000000" points="243.9868,-515.5007 247.1748,-525.6045 250.9835,-515.718 243.9868,-515.5007"/>
</g>
<!-- 7&#45;&gt;6 -->
<g id="edge6" class="edge">
<title>7&#45;&gt;6</title>
<path fill="none" stroke="#000000" d="M354.4123,-243.0072C357.7686,-247.3065 361.1361,-251.6202 364.5003,-255.9297"/>
<polygon fill="none" stroke="#000000" points="356.2538,-262.4296 382.9911,-279.6159 372.8071,-249.5071 356.2538,-262.4296"/>
</g>
</g>
</svg>
